<mxfile host="app.diagrams.net" modified="2021-12-10T12:04:40.639Z" agent="5.0 (Windows NT 10.0; Win64; x64) AppleWebKit/537.36 (KHTML, like Gecko) Chrome/96.0.4664.55 Safari/537.36 Edg/96.0.1054.43" etag="oOh-BqX58pjrRXVqYK4T" version="15.9.4" type="github">
  <diagram id="OkUewq2EerhCw4j9gwET" name="Page-1">
    <mxGraphModel dx="1673" dy="908" grid="1" gridSize="10" guides="1" tooltips="1" connect="1" arrows="1" fold="1" page="1" pageScale="1" pageWidth="850" pageHeight="1100" math="0" shadow="0">
      <root>
        <mxCell id="0" />
        <mxCell id="1" parent="0" />
        <mxCell id="7XZhA4TsvUJ1Mmdb0Nh9-1" style="edgeStyle=orthogonalEdgeStyle;rounded=0;orthogonalLoop=1;jettySize=auto;html=1;exitX=1;exitY=0.5;exitDx=0;exitDy=0;entryX=0;entryY=0.5;entryDx=0;entryDy=0;noEdgeStyle=1;orthogonal=1;" edge="1" parent="1" source="7XZhA4TsvUJ1Mmdb0Nh9-2" target="7XZhA4TsvUJ1Mmdb0Nh9-5">
          <mxGeometry relative="1" as="geometry">
            <Array as="points">
              <mxPoint x="232" y="190" />
              <mxPoint x="308" y="1170.1115417462013" />
            </Array>
          </mxGeometry>
        </mxCell>
        <mxCell id="7XZhA4TsvUJ1Mmdb0Nh9-2" value="Amount&lt;br&gt;" style="shape=parallelogram;html=1;strokeWidth=2;perimeter=parallelogramPerimeter;whiteSpace=wrap;rounded=1;arcSize=12;size=0.07500000000000001;fillColor=#f5f5f5;fontColor=#333333;strokeColor=#050505;" vertex="1" parent="1">
          <mxGeometry x="110" y="170" width="80" height="40" as="geometry" />
        </mxCell>
        <mxCell id="7XZhA4TsvUJ1Mmdb0Nh9-3" style="edgeStyle=orthogonalEdgeStyle;rounded=0;orthogonalLoop=1;jettySize=auto;html=1;exitX=1;exitY=0.5;exitDx=0;exitDy=0;entryX=0;entryY=0.5;entryDx=0;entryDy=0;noEdgeStyle=1;orthogonal=1;" edge="1" parent="1" source="7XZhA4TsvUJ1Mmdb0Nh9-5" target="7XZhA4TsvUJ1Mmdb0Nh9-27">
          <mxGeometry relative="1" as="geometry">
            <Array as="points">
              <mxPoint x="472" y="1194.7543988890584" />
              <mxPoint x="548" y="1292.211578329177" />
            </Array>
          </mxGeometry>
        </mxCell>
        <mxCell id="7XZhA4TsvUJ1Mmdb0Nh9-4" style="edgeStyle=orthogonalEdgeStyle;rounded=0;orthogonalLoop=1;jettySize=auto;html=1;exitX=1;exitY=0.5;exitDx=0;exitDy=0;entryX=0;entryY=0.5;entryDx=0;entryDy=0;strokeWidth=1;noEdgeStyle=1;orthogonal=1;" edge="1" parent="1" source="7XZhA4TsvUJ1Mmdb0Nh9-5" target="7XZhA4TsvUJ1Mmdb0Nh9-86">
          <mxGeometry relative="1" as="geometry">
            <Array as="points">
              <mxPoint x="472" y="1179.7543988890584" />
              <mxPoint x="548" y="1124.7543988890584" />
            </Array>
          </mxGeometry>
        </mxCell>
        <mxCell id="7XZhA4TsvUJ1Mmdb0Nh9-5" value="Preferences" style="shape=parallelogram;html=1;strokeWidth=2;perimeter=parallelogramPerimeter;whiteSpace=wrap;rounded=1;arcSize=23;size=0;" vertex="1" parent="1">
          <mxGeometry x="320" y="1167.2543988890584" width="140" height="40" as="geometry" />
        </mxCell>
        <mxCell id="7XZhA4TsvUJ1Mmdb0Nh9-6" style="edgeStyle=orthogonalEdgeStyle;rounded=0;orthogonalLoop=1;jettySize=auto;html=1;exitX=1;exitY=0.5;exitDx=0;exitDy=0;entryX=0;entryY=0.5;entryDx=0;entryDy=0;noEdgeStyle=1;orthogonal=1;" edge="1" parent="1" source="7XZhA4TsvUJ1Mmdb0Nh9-7" target="7XZhA4TsvUJ1Mmdb0Nh9-5">
          <mxGeometry relative="1" as="geometry">
            <Array as="points">
              <mxPoint x="232" y="260" />
              <mxPoint x="306" y="1175.825827460487" />
            </Array>
          </mxGeometry>
        </mxCell>
        <mxCell id="7XZhA4TsvUJ1Mmdb0Nh9-7" value="Area" style="shape=parallelogram;html=1;strokeWidth=2;perimeter=parallelogramPerimeter;whiteSpace=wrap;rounded=1;arcSize=12;size=0.07500000000000001;fillColor=#f5f5f5;fontColor=#333333;strokeColor=#050505;" vertex="1" parent="1">
          <mxGeometry x="110" y="240" width="80" height="40" as="geometry" />
        </mxCell>
        <mxCell id="7XZhA4TsvUJ1Mmdb0Nh9-8" style="edgeStyle=orthogonalEdgeStyle;rounded=0;orthogonalLoop=1;jettySize=auto;html=1;exitX=1;exitY=0.5;exitDx=0;exitDy=0;entryX=0;entryY=0.5;entryDx=0;entryDy=0;noEdgeStyle=1;orthogonal=1;" edge="1" parent="1" source="7XZhA4TsvUJ1Mmdb0Nh9-10" target="7XZhA4TsvUJ1Mmdb0Nh9-32">
          <mxGeometry relative="1" as="geometry">
            <Array as="points">
              <mxPoint x="232" y="110" />
              <mxPoint x="308" y="303.7896728515625" />
            </Array>
          </mxGeometry>
        </mxCell>
        <mxCell id="7XZhA4TsvUJ1Mmdb0Nh9-9" style="edgeStyle=orthogonalEdgeStyle;rounded=0;orthogonalLoop=1;jettySize=auto;html=1;exitX=1;exitY=0.5;exitDx=0;exitDy=0;entryX=0;entryY=0.5;entryDx=0;entryDy=0;noEdgeStyle=1;orthogonal=1;" edge="1" parent="1" source="7XZhA4TsvUJ1Mmdb0Nh9-10" target="7XZhA4TsvUJ1Mmdb0Nh9-34">
          <mxGeometry relative="1" as="geometry">
            <mxPoint x="410" y="210" as="targetPoint" />
            <Array as="points">
              <mxPoint x="234" y="120" />
              <mxPoint x="308" y="373.7896728515625" />
            </Array>
          </mxGeometry>
        </mxCell>
        <mxCell id="7XZhA4TsvUJ1Mmdb0Nh9-10" value="Relations" style="shape=parallelogram;html=1;strokeWidth=2;perimeter=parallelogramPerimeter;whiteSpace=wrap;rounded=1;arcSize=23;size=0;" vertex="1" parent="1">
          <mxGeometry x="80" y="100" width="140" height="40" as="geometry" />
        </mxCell>
        <mxCell id="7XZhA4TsvUJ1Mmdb0Nh9-11" style="edgeStyle=orthogonalEdgeStyle;rounded=0;orthogonalLoop=1;jettySize=auto;html=1;exitX=1;exitY=0.5;exitDx=0;exitDy=0;strokeWidth=1;endArrow=none;endFill=0;entryX=0.5;entryY=0;entryDx=0;entryDy=0;noEdgeStyle=1;orthogonal=1;" edge="1" parent="1" source="7XZhA4TsvUJ1Mmdb0Nh9-12" target="7XZhA4TsvUJ1Mmdb0Nh9-22">
          <mxGeometry relative="1" as="geometry">
            <mxPoint x="420" y="740" as="targetPoint" />
            <Array as="points">
              <mxPoint x="472" y="1590" />
              <mxPoint x="548" y="1462.3333333333333" />
            </Array>
          </mxGeometry>
        </mxCell>
        <mxCell id="7XZhA4TsvUJ1Mmdb0Nh9-12" value="Context" style="shape=parallelogram;html=1;strokeWidth=2;perimeter=parallelogramPerimeter;whiteSpace=wrap;rounded=1;arcSize=23;size=0;" vertex="1" parent="1">
          <mxGeometry x="320" y="1570" width="140" height="40" as="geometry" />
        </mxCell>
        <mxCell id="7XZhA4TsvUJ1Mmdb0Nh9-13" style="edgeStyle=orthogonalEdgeStyle;rounded=0;orthogonalLoop=1;jettySize=auto;html=1;exitX=1;exitY=0.5;exitDx=0;exitDy=0;entryX=0;entryY=0.5;entryDx=0;entryDy=0;strokeWidth=1;noEdgeStyle=1;orthogonal=1;" edge="1" parent="1" source="7XZhA4TsvUJ1Mmdb0Nh9-15" target="7XZhA4TsvUJ1Mmdb0Nh9-28">
          <mxGeometry relative="1" as="geometry">
            <Array as="points">
              <mxPoint x="472" y="1756.2739158163265" />
              <mxPoint x="548" y="1748.7739158163265" />
            </Array>
          </mxGeometry>
        </mxCell>
        <mxCell id="7XZhA4TsvUJ1Mmdb0Nh9-14" style="edgeStyle=orthogonalEdgeStyle;rounded=0;orthogonalLoop=1;jettySize=auto;html=1;exitX=1;exitY=0.5;exitDx=0;exitDy=0;entryX=0;entryY=0.5;entryDx=0;entryDy=0;strokeWidth=1;noEdgeStyle=1;orthogonal=1;" edge="1" parent="1" source="7XZhA4TsvUJ1Mmdb0Nh9-15" target="7XZhA4TsvUJ1Mmdb0Nh9-27">
          <mxGeometry relative="1" as="geometry">
            <Array as="points">
              <mxPoint x="472" y="1741.2739158163265" />
              <mxPoint x="548" y="1307.211578329177" />
            </Array>
          </mxGeometry>
        </mxCell>
        <mxCell id="7XZhA4TsvUJ1Mmdb0Nh9-15" value="Spaces" style="shape=parallelogram;html=1;strokeWidth=2;perimeter=parallelogramPerimeter;whiteSpace=wrap;rounded=1;arcSize=23;size=0;" vertex="1" parent="1">
          <mxGeometry x="320" y="1728.7739158163265" width="140" height="40" as="geometry" />
        </mxCell>
        <mxCell id="7XZhA4TsvUJ1Mmdb0Nh9-16" style="edgeStyle=orthogonalEdgeStyle;rounded=0;orthogonalLoop=1;jettySize=auto;html=1;exitX=1;exitY=0.5;exitDx=0;exitDy=0;entryX=0;entryY=0.5;entryDx=0;entryDy=0;noEdgeStyle=1;orthogonal=1;" edge="1" parent="1" source="7XZhA4TsvUJ1Mmdb0Nh9-22" target="7XZhA4TsvUJ1Mmdb0Nh9-39">
          <mxGeometry relative="1" as="geometry">
            <Array as="points">
              <mxPoint x="712" y="1429.4375" />
              <mxPoint x="788" y="1235" />
            </Array>
          </mxGeometry>
        </mxCell>
        <mxCell id="7XZhA4TsvUJ1Mmdb0Nh9-17" style="edgeStyle=orthogonalEdgeStyle;rounded=0;orthogonalLoop=1;jettySize=auto;html=1;exitX=1;exitY=0.5;exitDx=0;exitDy=0;entryX=0;entryY=0.5;entryDx=0;entryDy=0;noEdgeStyle=1;orthogonal=1;" edge="1" parent="1" source="7XZhA4TsvUJ1Mmdb0Nh9-22" target="7XZhA4TsvUJ1Mmdb0Nh9-41">
          <mxGeometry relative="1" as="geometry">
            <Array as="points">
              <mxPoint x="714" y="1435.3125" />
              <mxPoint x="788" y="1305" />
            </Array>
          </mxGeometry>
        </mxCell>
        <mxCell id="7XZhA4TsvUJ1Mmdb0Nh9-18" style="edgeStyle=orthogonalEdgeStyle;rounded=0;orthogonalLoop=1;jettySize=auto;html=1;exitX=1;exitY=0.5;exitDx=0;exitDy=0;entryX=0;entryY=0.5;entryDx=0;entryDy=0;noEdgeStyle=1;orthogonal=1;" edge="1" parent="1" source="7XZhA4TsvUJ1Mmdb0Nh9-22" target="7XZhA4TsvUJ1Mmdb0Nh9-43">
          <mxGeometry relative="1" as="geometry">
            <Array as="points">
              <mxPoint x="716" y="1441.1875" />
              <mxPoint x="788" y="1375" />
            </Array>
          </mxGeometry>
        </mxCell>
        <mxCell id="7XZhA4TsvUJ1Mmdb0Nh9-19" style="edgeStyle=orthogonalEdgeStyle;rounded=0;orthogonalLoop=1;jettySize=auto;html=1;exitX=1;exitY=0.5;exitDx=0;exitDy=0;entryX=0;entryY=0.5;entryDx=0;entryDy=0;noEdgeStyle=1;orthogonal=1;" edge="1" parent="1" source="7XZhA4TsvUJ1Mmdb0Nh9-22" target="7XZhA4TsvUJ1Mmdb0Nh9-64">
          <mxGeometry relative="1" as="geometry">
            <Array as="points">
              <mxPoint x="718" y="1447.0625" />
              <mxPoint x="788" y="1445" />
            </Array>
          </mxGeometry>
        </mxCell>
        <mxCell id="7XZhA4TsvUJ1Mmdb0Nh9-20" style="edgeStyle=orthogonalEdgeStyle;rounded=0;orthogonalLoop=1;jettySize=auto;html=1;exitX=1;exitY=0.5;exitDx=0;exitDy=0;entryX=0;entryY=0.5;entryDx=0;entryDy=0;noEdgeStyle=1;orthogonal=1;" edge="1" parent="1" source="7XZhA4TsvUJ1Mmdb0Nh9-22" target="7XZhA4TsvUJ1Mmdb0Nh9-66">
          <mxGeometry relative="1" as="geometry">
            <mxPoint x="450" y="790" as="targetPoint" />
            <Array as="points">
              <mxPoint x="718" y="1452.9375" />
              <mxPoint x="788" y="1515" />
            </Array>
          </mxGeometry>
        </mxCell>
        <mxCell id="7XZhA4TsvUJ1Mmdb0Nh9-21" style="edgeStyle=orthogonalEdgeStyle;rounded=0;orthogonalLoop=1;jettySize=auto;html=1;exitX=1;exitY=0.5;exitDx=0;exitDy=0;entryX=0;entryY=0.5;entryDx=0;entryDy=0;noEdgeStyle=1;orthogonal=1;" edge="1" parent="1" source="7XZhA4TsvUJ1Mmdb0Nh9-22" target="7XZhA4TsvUJ1Mmdb0Nh9-68">
          <mxGeometry relative="1" as="geometry">
            <Array as="points">
              <mxPoint x="716" y="1458.8125" />
              <mxPoint x="788" y="1585" />
            </Array>
          </mxGeometry>
        </mxCell>
        <mxCell id="7XZhA4TsvUJ1Mmdb0Nh9-22" value="Envelope" style="shape=parallelogram;html=1;strokeWidth=2;perimeter=parallelogramPerimeter;whiteSpace=wrap;rounded=1;arcSize=23;size=0;" vertex="1" parent="1">
          <mxGeometry x="560" y="1426.5" width="140" height="47" as="geometry" />
        </mxCell>
        <mxCell id="7XZhA4TsvUJ1Mmdb0Nh9-23" style="edgeStyle=orthogonalEdgeStyle;rounded=0;orthogonalLoop=1;jettySize=auto;html=1;exitX=1;exitY=0.5;exitDx=0;exitDy=0;endArrow=classic;endFill=1;strokeWidth=1;entryX=0;entryY=0.5;entryDx=0;entryDy=0;noEdgeStyle=1;orthogonal=1;" edge="1" parent="1" source="7XZhA4TsvUJ1Mmdb0Nh9-24" target="7XZhA4TsvUJ1Mmdb0Nh9-22">
          <mxGeometry relative="1" as="geometry">
            <mxPoint x="400" y="1070" as="targetPoint" />
            <Array as="points">
              <mxPoint x="472" y="1450" />
              <mxPoint x="548" y="1437.6666666666667" />
            </Array>
          </mxGeometry>
        </mxCell>
        <mxCell id="7XZhA4TsvUJ1Mmdb0Nh9-24" value="Stensil" style="shape=parallelogram;html=1;strokeWidth=2;perimeter=parallelogramPerimeter;whiteSpace=wrap;rounded=1;arcSize=23;size=0;" vertex="1" parent="1">
          <mxGeometry x="320" y="1430" width="140" height="40" as="geometry" />
        </mxCell>
        <mxCell id="7XZhA4TsvUJ1Mmdb0Nh9-25" style="edgeStyle=orthogonalEdgeStyle;rounded=0;orthogonalLoop=1;jettySize=auto;html=1;exitX=1;exitY=0.5;exitDx=0;exitDy=0;entryX=0;entryY=0.5;entryDx=0;entryDy=0;noEdgeStyle=1;orthogonal=1;" edge="1" parent="1" source="7XZhA4TsvUJ1Mmdb0Nh9-27" target="7XZhA4TsvUJ1Mmdb0Nh9-82">
          <mxGeometry relative="1" as="geometry">
            <Array as="points">
              <mxPoint x="712" y="1292.211578329177" />
              <mxPoint x="788" y="1095" />
            </Array>
          </mxGeometry>
        </mxCell>
        <mxCell id="7XZhA4TsvUJ1Mmdb0Nh9-26" style="edgeStyle=orthogonalEdgeStyle;rounded=0;orthogonalLoop=1;jettySize=auto;html=1;exitX=1;exitY=0.5;exitDx=0;exitDy=0;noEdgeStyle=1;orthogonal=1;" edge="1" parent="1" source="7XZhA4TsvUJ1Mmdb0Nh9-27" target="7XZhA4TsvUJ1Mmdb0Nh9-80">
          <mxGeometry relative="1" as="geometry">
            <Array as="points">
              <mxPoint x="712" y="1307.211578329177" />
              <mxPoint x="788" y="1165" />
            </Array>
          </mxGeometry>
        </mxCell>
        <mxCell id="7XZhA4TsvUJ1Mmdb0Nh9-27" value="Architectural Prefrences" style="shape=parallelogram;html=1;strokeWidth=2;perimeter=parallelogramPerimeter;whiteSpace=wrap;rounded=1;arcSize=23;size=0;" vertex="1" parent="1">
          <mxGeometry x="560" y="1279.711578329177" width="140" height="40" as="geometry" />
        </mxCell>
        <mxCell id="7XZhA4TsvUJ1Mmdb0Nh9-28" value="Voxel sizes" style="shape=parallelogram;html=1;strokeWidth=2;perimeter=parallelogramPerimeter;whiteSpace=wrap;rounded=1;arcSize=23;size=0;" vertex="1" parent="1">
          <mxGeometry x="560" y="1728.7739158163265" width="140" height="40" as="geometry" />
        </mxCell>
        <mxCell id="7XZhA4TsvUJ1Mmdb0Nh9-29" style="edgeStyle=orthogonalEdgeStyle;rounded=0;orthogonalLoop=1;jettySize=auto;html=1;exitX=1;exitY=0.5;exitDx=0;exitDy=0;strokeWidth=1;noEdgeStyle=1;orthogonal=1;entryX=0;entryY=0.5;entryDx=0;entryDy=0;" edge="1" parent="1" source="7XZhA4TsvUJ1Mmdb0Nh9-30" target="7XZhA4TsvUJ1Mmdb0Nh9-86">
          <mxGeometry relative="1" as="geometry">
            <Array as="points">
              <mxPoint x="472" y="1117.2543988890584" />
              <mxPoint x="548" y="1109.7543988890584" />
            </Array>
          </mxGeometry>
        </mxCell>
        <mxCell id="7XZhA4TsvUJ1Mmdb0Nh9-30" value="Compactness" style="shape=parallelogram;html=1;strokeWidth=2;perimeter=parallelogramPerimeter;whiteSpace=wrap;rounded=1;arcSize=23;size=0;" vertex="1" parent="1">
          <mxGeometry x="320" y="1097.2543988890584" width="140" height="40" as="geometry" />
        </mxCell>
        <mxCell id="7XZhA4TsvUJ1Mmdb0Nh9-31" style="edgeStyle=orthogonalEdgeStyle;rounded=0;orthogonalLoop=1;jettySize=auto;html=1;exitX=1;exitY=0.5;exitDx=0;exitDy=0;entryX=0;entryY=0.5;entryDx=0;entryDy=0;noEdgeStyle=1;orthogonal=1;" edge="1" parent="1" source="7XZhA4TsvUJ1Mmdb0Nh9-32" target="7XZhA4TsvUJ1Mmdb0Nh9-57">
          <mxGeometry relative="1" as="geometry">
            <Array as="points">
              <mxPoint x="472" y="303.7896728515625" />
              <mxPoint x="548" y="476.4459228515625" />
            </Array>
          </mxGeometry>
        </mxCell>
        <mxCell id="7XZhA4TsvUJ1Mmdb0Nh9-32" value="Stairway" style="shape=parallelogram;html=1;strokeWidth=2;perimeter=parallelogramPerimeter;whiteSpace=wrap;rounded=1;arcSize=12;size=0.07500000000000001;fillColor=#f5f5f5;fontColor=#333333;strokeColor=#050505;" vertex="1" parent="1">
          <mxGeometry x="350" y="283.7896728515625" width="80" height="40" as="geometry" />
        </mxCell>
        <mxCell id="7XZhA4TsvUJ1Mmdb0Nh9-33" style="edgeStyle=orthogonalEdgeStyle;rounded=0;orthogonalLoop=1;jettySize=auto;html=1;exitX=1;exitY=0.5;exitDx=0;exitDy=0;entryX=0;entryY=0.5;entryDx=0;entryDy=0;noEdgeStyle=1;orthogonal=1;" edge="1" parent="1" source="7XZhA4TsvUJ1Mmdb0Nh9-34" target="7XZhA4TsvUJ1Mmdb0Nh9-57">
          <mxGeometry relative="1" as="geometry">
            <Array as="points">
              <mxPoint x="472" y="373.7896728515625" />
              <mxPoint x="546" y="486.4459228515625" />
            </Array>
          </mxGeometry>
        </mxCell>
        <mxCell id="7XZhA4TsvUJ1Mmdb0Nh9-34" value="Corridor" style="shape=parallelogram;html=1;strokeWidth=2;perimeter=parallelogramPerimeter;whiteSpace=wrap;rounded=1;arcSize=12;size=0.07500000000000001;fillColor=#f5f5f5;fontColor=#333333;strokeColor=#050505;" vertex="1" parent="1">
          <mxGeometry x="350" y="353.7896728515625" width="80" height="40" as="geometry" />
        </mxCell>
        <mxCell id="7XZhA4TsvUJ1Mmdb0Nh9-35" style="edgeStyle=orthogonalEdgeStyle;rounded=0;orthogonalLoop=1;jettySize=auto;html=1;exitX=1;exitY=0.5;exitDx=0;exitDy=0;entryX=0;entryY=0.5;entryDx=0;entryDy=0;noEdgeStyle=1;orthogonal=1;" edge="1" parent="1" source="7XZhA4TsvUJ1Mmdb0Nh9-10" target="7XZhA4TsvUJ1Mmdb0Nh9-37">
          <mxGeometry relative="1" as="geometry">
            <Array as="points">
              <mxPoint x="232" y="130" />
              <mxPoint x="308" y="443.7896728515625" />
            </Array>
          </mxGeometry>
        </mxCell>
        <mxCell id="7XZhA4TsvUJ1Mmdb0Nh9-36" style="edgeStyle=orthogonalEdgeStyle;rounded=0;orthogonalLoop=1;jettySize=auto;html=1;exitX=1;exitY=0.5;exitDx=0;exitDy=0;entryX=0;entryY=0.5;entryDx=0;entryDy=0;noEdgeStyle=1;orthogonal=1;" edge="1" parent="1" source="7XZhA4TsvUJ1Mmdb0Nh9-37" target="7XZhA4TsvUJ1Mmdb0Nh9-57">
          <mxGeometry relative="1" as="geometry">
            <mxPoint x="650" y="200" as="targetPoint" />
            <Array as="points">
              <mxPoint x="472" y="443.7896728515625" />
              <mxPoint x="548" y="496.4459228515625" />
            </Array>
          </mxGeometry>
        </mxCell>
        <mxCell id="7XZhA4TsvUJ1Mmdb0Nh9-37" value="Elevator shaft" style="shape=parallelogram;html=1;strokeWidth=2;perimeter=parallelogramPerimeter;whiteSpace=wrap;rounded=1;arcSize=12;size=0.07500000000000001;fillColor=#f5f5f5;fontColor=#333333;strokeColor=#050505;" vertex="1" parent="1">
          <mxGeometry x="350" y="423.7896728515625" width="80" height="40" as="geometry" />
        </mxCell>
        <mxCell id="7XZhA4TsvUJ1Mmdb0Nh9-38" style="edgeStyle=orthogonalEdgeStyle;rounded=0;orthogonalLoop=1;jettySize=auto;html=1;exitX=1;exitY=0.5;exitDx=0;exitDy=0;entryX=0;entryY=0.5;entryDx=0;entryDy=0;strokeWidth=1;noEdgeStyle=1;orthogonal=1;" edge="1" parent="1" source="7XZhA4TsvUJ1Mmdb0Nh9-39" target="7XZhA4TsvUJ1Mmdb0Nh9-84">
          <mxGeometry relative="1" as="geometry">
            <Array as="points">
              <mxPoint x="892" y="1235" />
              <mxPoint x="968" y="1453.0555555555557" />
            </Array>
          </mxGeometry>
        </mxCell>
        <mxCell id="7XZhA4TsvUJ1Mmdb0Nh9-39" value="Shadowing" style="shape=parallelogram;html=1;strokeWidth=2;perimeter=parallelogramPerimeter;whiteSpace=wrap;rounded=1;arcSize=12;size=0.07500000000000001;fillColor=#f5f5f5;fontColor=#333333;strokeColor=#050505;" vertex="1" parent="1">
          <mxGeometry x="800" y="1215" width="80" height="40" as="geometry" />
        </mxCell>
        <mxCell id="7XZhA4TsvUJ1Mmdb0Nh9-40" style="edgeStyle=orthogonalEdgeStyle;rounded=0;orthogonalLoop=1;jettySize=auto;html=1;exitX=1;exitY=0.5;exitDx=0;exitDy=0;entryX=0;entryY=0.5;entryDx=0;entryDy=0;strokeWidth=1;noEdgeStyle=1;orthogonal=1;" edge="1" parent="1" source="7XZhA4TsvUJ1Mmdb0Nh9-41" target="7XZhA4TsvUJ1Mmdb0Nh9-84">
          <mxGeometry relative="1" as="geometry">
            <Array as="points">
              <mxPoint x="892" y="1305" />
              <mxPoint x="966" y="1458.0555555555557" />
            </Array>
          </mxGeometry>
        </mxCell>
        <mxCell id="7XZhA4TsvUJ1Mmdb0Nh9-41" value="Noise" style="shape=parallelogram;html=1;strokeWidth=2;perimeter=parallelogramPerimeter;whiteSpace=wrap;rounded=1;arcSize=12;size=0.07500000000000001;fillColor=#f5f5f5;fontColor=#333333;strokeColor=#050505;" vertex="1" parent="1">
          <mxGeometry x="800" y="1285" width="80" height="40" as="geometry" />
        </mxCell>
        <mxCell id="7XZhA4TsvUJ1Mmdb0Nh9-42" style="edgeStyle=orthogonalEdgeStyle;rounded=0;orthogonalLoop=1;jettySize=auto;html=1;exitX=1;exitY=0.5;exitDx=0;exitDy=0;entryX=0;entryY=0.5;entryDx=0;entryDy=0;strokeWidth=1;noEdgeStyle=1;orthogonal=1;" edge="1" parent="1" source="7XZhA4TsvUJ1Mmdb0Nh9-43" target="7XZhA4TsvUJ1Mmdb0Nh9-84">
          <mxGeometry relative="1" as="geometry">
            <Array as="points">
              <mxPoint x="892" y="1375" />
              <mxPoint x="964" y="1463.0555555555557" />
            </Array>
          </mxGeometry>
        </mxCell>
        <mxCell id="7XZhA4TsvUJ1Mmdb0Nh9-43" value="Street Access" style="shape=parallelogram;html=1;strokeWidth=2;perimeter=parallelogramPerimeter;whiteSpace=wrap;rounded=1;arcSize=12;size=0.07500000000000001;fillColor=#f5f5f5;fontColor=#333333;strokeColor=#050505;" vertex="1" parent="1">
          <mxGeometry x="800" y="1355" width="80" height="40" as="geometry" />
        </mxCell>
        <mxCell id="7XZhA4TsvUJ1Mmdb0Nh9-44" style="edgeStyle=orthogonalEdgeStyle;rounded=0;orthogonalLoop=1;jettySize=auto;html=1;exitX=1;exitY=0.5;exitDx=0;exitDy=0;entryX=0;entryY=0.5;entryDx=0;entryDy=0;noEdgeStyle=1;orthogonal=1;" edge="1" parent="1" source="7XZhA4TsvUJ1Mmdb0Nh9-45" target="7XZhA4TsvUJ1Mmdb0Nh9-5">
          <mxGeometry relative="1" as="geometry">
            <Array as="points">
              <mxPoint x="232" y="330" />
              <mxPoint x="304" y="1181.5401131747728" />
            </Array>
          </mxGeometry>
        </mxCell>
        <mxCell id="7XZhA4TsvUJ1Mmdb0Nh9-45" value="Elevation" style="shape=parallelogram;html=1;strokeWidth=2;perimeter=parallelogramPerimeter;whiteSpace=wrap;rounded=1;arcSize=12;size=0.07500000000000001;fillColor=#f5f5f5;fontColor=#333333;strokeColor=#050505;" vertex="1" parent="1">
          <mxGeometry x="110" y="310" width="80" height="40" as="geometry" />
        </mxCell>
        <mxCell id="7XZhA4TsvUJ1Mmdb0Nh9-46" style="edgeStyle=orthogonalEdgeStyle;rounded=0;orthogonalLoop=1;jettySize=auto;html=1;exitX=1;exitY=0.5;exitDx=0;exitDy=0;entryX=0;entryY=0.5;entryDx=0;entryDy=0;noEdgeStyle=1;orthogonal=1;" edge="1" parent="1" source="7XZhA4TsvUJ1Mmdb0Nh9-47" target="7XZhA4TsvUJ1Mmdb0Nh9-5">
          <mxGeometry relative="1" as="geometry">
            <Array as="points">
              <mxPoint x="232" y="400" />
              <mxPoint x="302" y="1187.2543988890586" />
            </Array>
          </mxGeometry>
        </mxCell>
        <mxCell id="7XZhA4TsvUJ1Mmdb0Nh9-47" value="Space Heights" style="shape=parallelogram;html=1;strokeWidth=2;perimeter=parallelogramPerimeter;whiteSpace=wrap;rounded=1;arcSize=12;size=0.07500000000000001;fillColor=#f5f5f5;fontColor=#333333;strokeColor=#050505;" vertex="1" parent="1">
          <mxGeometry x="110" y="380" width="80" height="40" as="geometry" />
        </mxCell>
        <mxCell id="7XZhA4TsvUJ1Mmdb0Nh9-48" style="edgeStyle=orthogonalEdgeStyle;rounded=0;orthogonalLoop=1;jettySize=auto;html=1;exitX=1;exitY=0.5;exitDx=0;exitDy=0;entryX=0;entryY=0.5;entryDx=0;entryDy=0;noEdgeStyle=1;orthogonal=1;" edge="1" parent="1" source="7XZhA4TsvUJ1Mmdb0Nh9-49" target="7XZhA4TsvUJ1Mmdb0Nh9-5">
          <mxGeometry relative="1" as="geometry">
            <Array as="points">
              <mxPoint x="232" y="470" />
              <mxPoint x="304" y="1192.9686846033444" />
            </Array>
          </mxGeometry>
        </mxCell>
        <mxCell id="7XZhA4TsvUJ1Mmdb0Nh9-49" value="Floor thickness" style="shape=parallelogram;html=1;strokeWidth=2;perimeter=parallelogramPerimeter;whiteSpace=wrap;rounded=1;arcSize=12;size=0.07500000000000001;fillColor=#f5f5f5;fontColor=#333333;strokeColor=#050505;" vertex="1" parent="1">
          <mxGeometry x="110" y="450" width="80" height="40" as="geometry" />
        </mxCell>
        <mxCell id="7XZhA4TsvUJ1Mmdb0Nh9-50" style="edgeStyle=orthogonalEdgeStyle;rounded=0;orthogonalLoop=1;jettySize=auto;html=1;exitX=1;exitY=0.5;exitDx=0;exitDy=0;entryX=0;entryY=0.5;entryDx=0;entryDy=0;noEdgeStyle=1;orthogonal=1;" edge="1" parent="1" source="7XZhA4TsvUJ1Mmdb0Nh9-51" target="7XZhA4TsvUJ1Mmdb0Nh9-5">
          <mxGeometry relative="1" as="geometry">
            <Array as="points">
              <mxPoint x="232" y="540" />
              <mxPoint x="306" y="1198.6829703176302" />
            </Array>
          </mxGeometry>
        </mxCell>
        <mxCell id="7XZhA4TsvUJ1Mmdb0Nh9-51" value="Properties per unit" style="shape=parallelogram;html=1;strokeWidth=2;perimeter=parallelogramPerimeter;whiteSpace=wrap;rounded=1;arcSize=12;size=0.07500000000000001;fillColor=#f5f5f5;fontColor=#333333;strokeColor=#050505;" vertex="1" parent="1">
          <mxGeometry x="110" y="520" width="80" height="40" as="geometry" />
        </mxCell>
        <mxCell id="7XZhA4TsvUJ1Mmdb0Nh9-52" style="edgeStyle=orthogonalEdgeStyle;rounded=0;orthogonalLoop=1;jettySize=auto;html=1;exitX=1;exitY=0.5;exitDx=0;exitDy=0;entryX=0;entryY=0.5;entryDx=0;entryDy=0;noEdgeStyle=1;orthogonal=1;" edge="1" parent="1" source="7XZhA4TsvUJ1Mmdb0Nh9-53" target="7XZhA4TsvUJ1Mmdb0Nh9-5">
          <mxGeometry relative="1" as="geometry">
            <Array as="points">
              <mxPoint x="232" y="610" />
              <mxPoint x="308" y="1204.397256031916" />
            </Array>
          </mxGeometry>
        </mxCell>
        <mxCell id="7XZhA4TsvUJ1Mmdb0Nh9-53" value="Properties per type" style="shape=parallelogram;html=1;strokeWidth=2;perimeter=parallelogramPerimeter;whiteSpace=wrap;rounded=1;arcSize=12;size=0.07500000000000001;fillColor=#f5f5f5;fontColor=#333333;strokeColor=#050505;" vertex="1" parent="1">
          <mxGeometry x="110" y="590" width="80" height="40" as="geometry" />
        </mxCell>
        <mxCell id="7XZhA4TsvUJ1Mmdb0Nh9-54" style="edgeStyle=orthogonalEdgeStyle;rounded=0;orthogonalLoop=1;jettySize=auto;html=1;exitX=1;exitY=0.5;exitDx=0;exitDy=0;entryX=0;entryY=0.5;entryDx=0;entryDy=0;noEdgeStyle=1;orthogonal=1;" edge="1" parent="1" source="7XZhA4TsvUJ1Mmdb0Nh9-55" target="7XZhA4TsvUJ1Mmdb0Nh9-22">
          <mxGeometry relative="1" as="geometry">
            <Array as="points">
              <mxPoint x="472" y="1520" />
              <mxPoint x="546" y="1450" />
            </Array>
          </mxGeometry>
        </mxCell>
        <mxCell id="7XZhA4TsvUJ1Mmdb0Nh9-55" value="Street" style="shape=parallelogram;html=1;strokeWidth=2;perimeter=parallelogramPerimeter;whiteSpace=wrap;rounded=1;arcSize=12;size=0.07500000000000001;fillColor=#f5f5f5;fontColor=#333333;strokeColor=#050505;" vertex="1" parent="1">
          <mxGeometry x="350" y="1500" width="80" height="40" as="geometry" />
        </mxCell>
        <mxCell id="7XZhA4TsvUJ1Mmdb0Nh9-56" style="edgeStyle=orthogonalEdgeStyle;rounded=0;orthogonalLoop=1;jettySize=auto;html=1;exitX=1;exitY=0.5;exitDx=0;exitDy=0;entryX=0;entryY=0.5;entryDx=0;entryDy=0;noEdgeStyle=1;orthogonal=1;" edge="1" parent="1" source="7XZhA4TsvUJ1Mmdb0Nh9-57" target="7XZhA4TsvUJ1Mmdb0Nh9-59">
          <mxGeometry relative="1" as="geometry">
            <Array as="points">
              <mxPoint x="712" y="486.4459228515625" />
              <mxPoint x="750" y="824.4146728515625" />
              <mxPoint x="930" y="824.4146728515625" />
              <mxPoint x="930" y="824.4146728515625" />
              <mxPoint x="1170" y="824.4146728515625" />
              <mxPoint x="1170" y="824.4146728515625" />
              <mxPoint x="1410" y="824.4146728515625" />
              <mxPoint x="1410" y="824.4146728515625" />
              <mxPoint x="1650" y="824.4146728515625" />
              <mxPoint x="1688" y="1372.5" />
            </Array>
          </mxGeometry>
        </mxCell>
        <mxCell id="7XZhA4TsvUJ1Mmdb0Nh9-57" value="Paths" style="shape=parallelogram;html=1;strokeWidth=2;perimeter=parallelogramPerimeter;whiteSpace=wrap;rounded=1;arcSize=23;size=0;" vertex="1" parent="1">
          <mxGeometry x="560" y="466.4459228515625" width="140" height="40" as="geometry" />
        </mxCell>
        <mxCell id="7XZhA4TsvUJ1Mmdb0Nh9-58" style="edgeStyle=orthogonalEdgeStyle;rounded=0;orthogonalLoop=1;jettySize=auto;html=1;exitX=1;exitY=0.5;exitDx=0;exitDy=0;entryX=0;entryY=0.5;entryDx=0;entryDy=0;noEdgeStyle=1;orthogonal=1;" edge="1" parent="1" source="7XZhA4TsvUJ1Mmdb0Nh9-59" target="7XZhA4TsvUJ1Mmdb0Nh9-61">
          <mxGeometry relative="1" as="geometry">
            <Array as="points">
              <mxPoint x="1852" y="1380" />
              <mxPoint x="1926" y="1380" />
            </Array>
          </mxGeometry>
        </mxCell>
        <mxCell id="7XZhA4TsvUJ1Mmdb0Nh9-59" value="Final configuration" style="shape=parallelogram;html=1;strokeWidth=2;perimeter=parallelogramPerimeter;whiteSpace=wrap;rounded=1;arcSize=23;size=0;" vertex="1" parent="1">
          <mxGeometry x="1700" y="1360" width="140" height="40" as="geometry" />
        </mxCell>
        <mxCell id="7XZhA4TsvUJ1Mmdb0Nh9-60" style="edgeStyle=orthogonalEdgeStyle;rounded=0;orthogonalLoop=1;jettySize=auto;html=1;exitX=1;exitY=0.5;exitDx=0;exitDy=0;entryX=0;entryY=0.5;entryDx=0;entryDy=0;noEdgeStyle=1;orthogonal=1;" edge="1" parent="1" source="7XZhA4TsvUJ1Mmdb0Nh9-61" target="7XZhA4TsvUJ1Mmdb0Nh9-62">
          <mxGeometry relative="1" as="geometry">
            <Array as="points">
              <mxPoint x="2092" y="1380" />
              <mxPoint x="2168" y="1380" />
            </Array>
          </mxGeometry>
        </mxCell>
        <mxCell id="7XZhA4TsvUJ1Mmdb0Nh9-61" value="Polygonization" style="shape=parallelogram;html=1;strokeWidth=2;perimeter=parallelogramPerimeter;whiteSpace=wrap;rounded=1;arcSize=23;size=0;" vertex="1" parent="1">
          <mxGeometry x="1940" y="1360" width="140" height="40" as="geometry" />
        </mxCell>
        <mxCell id="7XZhA4TsvUJ1Mmdb0Nh9-62" value="Final visualisation" style="shape=parallelogram;html=1;strokeWidth=2;perimeter=parallelogramPerimeter;whiteSpace=wrap;rounded=1;arcSize=23;size=0;" vertex="1" parent="1">
          <mxGeometry x="2180" y="1360" width="140" height="40" as="geometry" />
        </mxCell>
        <mxCell id="7XZhA4TsvUJ1Mmdb0Nh9-63" style="edgeStyle=orthogonalEdgeStyle;rounded=0;orthogonalLoop=1;jettySize=auto;html=1;exitX=1;exitY=0.5;exitDx=0;exitDy=0;entryX=0;entryY=0.5;entryDx=0;entryDy=0;strokeWidth=1;noEdgeStyle=1;orthogonal=1;" edge="1" parent="1" source="7XZhA4TsvUJ1Mmdb0Nh9-64" target="7XZhA4TsvUJ1Mmdb0Nh9-84">
          <mxGeometry relative="1" as="geometry">
            <Array as="points">
              <mxPoint x="892" y="1445" />
              <mxPoint x="962" y="1468.0555555555557" />
            </Array>
          </mxGeometry>
        </mxCell>
        <mxCell id="7XZhA4TsvUJ1Mmdb0Nh9-64" value="Ground Proximity" style="shape=parallelogram;html=1;strokeWidth=2;perimeter=parallelogramPerimeter;whiteSpace=wrap;rounded=1;arcSize=12;size=0.07500000000000001;fillColor=#f5f5f5;fontColor=#333333;strokeColor=#050505;" vertex="1" parent="1">
          <mxGeometry x="800" y="1425" width="80" height="40" as="geometry" />
        </mxCell>
        <mxCell id="7XZhA4TsvUJ1Mmdb0Nh9-65" style="edgeStyle=orthogonalEdgeStyle;rounded=0;orthogonalLoop=1;jettySize=auto;html=1;exitX=1;exitY=0.5;exitDx=0;exitDy=0;entryX=0;entryY=0.5;entryDx=0;entryDy=0;strokeWidth=1;noEdgeStyle=1;orthogonal=1;" edge="1" parent="1" source="7XZhA4TsvUJ1Mmdb0Nh9-66" target="7XZhA4TsvUJ1Mmdb0Nh9-84">
          <mxGeometry relative="1" as="geometry">
            <Array as="points">
              <mxPoint x="892" y="1515" />
              <mxPoint x="962" y="1473.0555555555557" />
            </Array>
          </mxGeometry>
        </mxCell>
        <mxCell id="7XZhA4TsvUJ1Mmdb0Nh9-66" value="Entrances" style="shape=parallelogram;html=1;strokeWidth=2;perimeter=parallelogramPerimeter;whiteSpace=wrap;rounded=1;arcSize=12;size=0.07500000000000001;fillColor=#f5f5f5;fontColor=#333333;strokeColor=#050505;" vertex="1" parent="1">
          <mxGeometry x="800" y="1495" width="80" height="40" as="geometry" />
        </mxCell>
        <mxCell id="7XZhA4TsvUJ1Mmdb0Nh9-67" style="edgeStyle=orthogonalEdgeStyle;rounded=0;orthogonalLoop=1;jettySize=auto;html=1;exitX=1;exitY=0.5;exitDx=0;exitDy=0;entryX=0;entryY=0.5;entryDx=0;entryDy=0;strokeWidth=1;noEdgeStyle=1;orthogonal=1;" edge="1" parent="1" source="7XZhA4TsvUJ1Mmdb0Nh9-68" target="7XZhA4TsvUJ1Mmdb0Nh9-84">
          <mxGeometry relative="1" as="geometry">
            <Array as="points">
              <mxPoint x="892" y="1585" />
              <mxPoint x="964" y="1478.0555555555557" />
            </Array>
          </mxGeometry>
        </mxCell>
        <mxCell id="7XZhA4TsvUJ1Mmdb0Nh9-68" value="Sky view" style="shape=parallelogram;html=1;strokeWidth=2;perimeter=parallelogramPerimeter;whiteSpace=wrap;rounded=1;arcSize=12;size=0.07500000000000001;fillColor=#f5f5f5;fontColor=#333333;strokeColor=#050505;" vertex="1" parent="1">
          <mxGeometry x="800" y="1565" width="80" height="40" as="geometry" />
        </mxCell>
        <mxCell id="7XZhA4TsvUJ1Mmdb0Nh9-69" style="edgeStyle=orthogonalEdgeStyle;rounded=0;orthogonalLoop=1;jettySize=auto;html=1;exitX=1;exitY=0.5;exitDx=0;exitDy=0;entryX=0;entryY=0.5;entryDx=0;entryDy=0;noEdgeStyle=1;orthogonal=1;" edge="1" parent="1" source="7XZhA4TsvUJ1Mmdb0Nh9-22" target="7XZhA4TsvUJ1Mmdb0Nh9-71">
          <mxGeometry relative="1" as="geometry">
            <Array as="points">
              <mxPoint x="714" y="1464.6875" />
              <mxPoint x="788" y="1655" />
            </Array>
          </mxGeometry>
        </mxCell>
        <mxCell id="7XZhA4TsvUJ1Mmdb0Nh9-70" style="edgeStyle=orthogonalEdgeStyle;rounded=0;orthogonalLoop=1;jettySize=auto;html=1;exitX=1;exitY=0.5;exitDx=0;exitDy=0;entryX=0;entryY=0.5;entryDx=0;entryDy=0;strokeWidth=1;noEdgeStyle=1;orthogonal=1;" edge="1" parent="1" source="7XZhA4TsvUJ1Mmdb0Nh9-71" target="7XZhA4TsvUJ1Mmdb0Nh9-84">
          <mxGeometry relative="1" as="geometry">
            <Array as="points">
              <mxPoint x="892" y="1655" />
              <mxPoint x="966" y="1483.0555555555557" />
            </Array>
          </mxGeometry>
        </mxCell>
        <mxCell id="7XZhA4TsvUJ1Mmdb0Nh9-71" value="Street View" style="shape=parallelogram;html=1;strokeWidth=2;perimeter=parallelogramPerimeter;whiteSpace=wrap;rounded=1;arcSize=12;size=0.07500000000000001;fillColor=#f5f5f5;fontColor=#333333;strokeColor=#050505;" vertex="1" parent="1">
          <mxGeometry x="800" y="1635" width="80" height="40" as="geometry" />
        </mxCell>
        <mxCell id="7XZhA4TsvUJ1Mmdb0Nh9-72" style="edgeStyle=orthogonalEdgeStyle;rounded=0;orthogonalLoop=1;jettySize=auto;html=1;exitX=1;exitY=0.5;exitDx=0;exitDy=0;entryX=0;entryY=0.5;entryDx=0;entryDy=0;noEdgeStyle=1;orthogonal=1;" edge="1" parent="1" source="7XZhA4TsvUJ1Mmdb0Nh9-22" target="7XZhA4TsvUJ1Mmdb0Nh9-74">
          <mxGeometry relative="1" as="geometry">
            <Array as="points">
              <mxPoint x="712" y="1470.5625" />
              <mxPoint x="788" y="1725" />
            </Array>
          </mxGeometry>
        </mxCell>
        <mxCell id="7XZhA4TsvUJ1Mmdb0Nh9-73" style="edgeStyle=orthogonalEdgeStyle;rounded=0;orthogonalLoop=1;jettySize=auto;html=1;exitX=1;exitY=0.5;exitDx=0;exitDy=0;entryX=0;entryY=0.5;entryDx=0;entryDy=0;strokeWidth=1;noEdgeStyle=1;orthogonal=1;" edge="1" parent="1" source="7XZhA4TsvUJ1Mmdb0Nh9-74" target="7XZhA4TsvUJ1Mmdb0Nh9-84">
          <mxGeometry relative="1" as="geometry">
            <Array as="points">
              <mxPoint x="892" y="1725" />
              <mxPoint x="968" y="1488.0555555555557" />
            </Array>
          </mxGeometry>
        </mxCell>
        <mxCell id="7XZhA4TsvUJ1Mmdb0Nh9-74" value="Football field" style="shape=parallelogram;html=1;strokeWidth=2;perimeter=parallelogramPerimeter;whiteSpace=wrap;rounded=1;arcSize=12;size=0.07500000000000001;fillColor=#f5f5f5;fontColor=#333333;strokeColor=#050505;" vertex="1" parent="1">
          <mxGeometry x="800" y="1705" width="80" height="40" as="geometry" />
        </mxCell>
        <mxCell id="7XZhA4TsvUJ1Mmdb0Nh9-75" style="edgeStyle=orthogonalEdgeStyle;rounded=0;orthogonalLoop=1;jettySize=auto;html=1;exitX=1;exitY=0.5;exitDx=0;exitDy=0;noEdgeStyle=1;orthogonal=1;" edge="1" parent="1" source="7XZhA4TsvUJ1Mmdb0Nh9-76" target="7XZhA4TsvUJ1Mmdb0Nh9-78">
          <mxGeometry relative="1" as="geometry">
            <Array as="points">
              <mxPoint x="1372" y="1395" />
              <mxPoint x="1448" y="1395" />
            </Array>
          </mxGeometry>
        </mxCell>
        <mxCell id="7XZhA4TsvUJ1Mmdb0Nh9-76" value="MCDA" style="shape=parallelogram;html=1;strokeWidth=2;perimeter=parallelogramPerimeter;whiteSpace=wrap;rounded=1;arcSize=23;size=0;" vertex="1" parent="1">
          <mxGeometry x="1220" y="1375" width="140" height="40" as="geometry" />
        </mxCell>
        <mxCell id="7XZhA4TsvUJ1Mmdb0Nh9-77" style="edgeStyle=orthogonalEdgeStyle;rounded=0;orthogonalLoop=1;jettySize=auto;html=1;exitX=1;exitY=0.5;exitDx=0;exitDy=0;entryX=0;entryY=0.5;entryDx=0;entryDy=0;noEdgeStyle=1;orthogonal=1;" edge="1" parent="1" source="7XZhA4TsvUJ1Mmdb0Nh9-78" target="7XZhA4TsvUJ1Mmdb0Nh9-59">
          <mxGeometry relative="1" as="geometry">
            <Array as="points">
              <mxPoint x="1612" y="1395" />
              <mxPoint x="1688" y="1387.5" />
            </Array>
          </mxGeometry>
        </mxCell>
        <mxCell id="7XZhA4TsvUJ1Mmdb0Nh9-78" value="Agent behaviour" style="shape=parallelogram;html=1;strokeWidth=2;perimeter=parallelogramPerimeter;whiteSpace=wrap;rounded=1;arcSize=23;size=0;" vertex="1" parent="1">
          <mxGeometry x="1460" y="1375" width="140" height="40" as="geometry" />
        </mxCell>
        <mxCell id="7XZhA4TsvUJ1Mmdb0Nh9-79" style="edgeStyle=orthogonalEdgeStyle;rounded=0;orthogonalLoop=1;jettySize=auto;html=1;exitX=1;exitY=0.5;exitDx=0;exitDy=0;entryX=0;entryY=0.5;entryDx=0;entryDy=0;noEdgeStyle=1;orthogonal=1;" edge="1" parent="1" source="7XZhA4TsvUJ1Mmdb0Nh9-80" target="7XZhA4TsvUJ1Mmdb0Nh9-61">
          <mxGeometry relative="1" as="geometry">
            <Array as="points">
              <mxPoint x="892" y="1165" />
              <mxPoint x="930" y="1305" />
              <mxPoint x="1170" y="1305" />
              <mxPoint x="1170" y="1445" />
              <mxPoint x="1410" y="1445" />
              <mxPoint x="1410" y="1445" />
              <mxPoint x="1650" y="1445" />
              <mxPoint x="1650" y="1445" />
              <mxPoint x="1890" y="1445" />
              <mxPoint x="1928" y="1390" />
            </Array>
          </mxGeometry>
        </mxCell>
        <mxCell id="7XZhA4TsvUJ1Mmdb0Nh9-80" value="Facade" style="shape=parallelogram;html=1;strokeWidth=2;perimeter=parallelogramPerimeter;whiteSpace=wrap;rounded=1;arcSize=12;size=0.07500000000000001;fillColor=#f5f5f5;fontColor=#333333;strokeColor=#050505;" vertex="1" parent="1">
          <mxGeometry x="800" y="1145" width="80" height="40" as="geometry" />
        </mxCell>
        <mxCell id="7XZhA4TsvUJ1Mmdb0Nh9-81" style="edgeStyle=orthogonalEdgeStyle;rounded=0;orthogonalLoop=1;jettySize=auto;html=1;exitX=1;exitY=0.5;exitDx=0;exitDy=0;entryX=0;entryY=0.5;entryDx=0;entryDy=0;noEdgeStyle=1;orthogonal=1;" edge="1" parent="1" source="7XZhA4TsvUJ1Mmdb0Nh9-82" target="7XZhA4TsvUJ1Mmdb0Nh9-61">
          <mxGeometry relative="1" as="geometry">
            <Array as="points">
              <mxPoint x="892" y="1095" />
              <mxPoint x="930" y="1250" />
              <mxPoint x="1170" y="1250" />
              <mxPoint x="1170" y="1250" />
              <mxPoint x="1410" y="1250" />
              <mxPoint x="1410" y="1250" />
              <mxPoint x="1650" y="1250" />
              <mxPoint x="1650" y="1250" />
              <mxPoint x="1890" y="1250" />
              <mxPoint x="1928" y="1370" />
            </Array>
          </mxGeometry>
        </mxCell>
        <mxCell id="7XZhA4TsvUJ1Mmdb0Nh9-82" value="Floorplan" style="shape=parallelogram;html=1;strokeWidth=2;perimeter=parallelogramPerimeter;whiteSpace=wrap;rounded=1;arcSize=12;size=0.07500000000000001;fillColor=#f5f5f5;fontColor=#333333;strokeColor=#050505;" vertex="1" parent="1">
          <mxGeometry x="800" y="1075" width="80" height="40" as="geometry" />
        </mxCell>
        <mxCell id="7XZhA4TsvUJ1Mmdb0Nh9-83" style="edgeStyle=orthogonalEdgeStyle;rounded=0;orthogonalLoop=1;jettySize=auto;html=1;exitX=1;exitY=0.5;exitDx=0;exitDy=0;entryX=0;entryY=0.5;entryDx=0;entryDy=0;noEdgeStyle=1;orthogonal=1;" edge="1" parent="1" source="7XZhA4TsvUJ1Mmdb0Nh9-84" target="7XZhA4TsvUJ1Mmdb0Nh9-76">
          <mxGeometry relative="1" as="geometry">
            <Array as="points">
              <mxPoint x="1132" y="1470.5555555555557" />
              <mxPoint x="1208" y="1402.5" />
            </Array>
          </mxGeometry>
        </mxCell>
        <mxCell id="7XZhA4TsvUJ1Mmdb0Nh9-84" value="Intial field conditions/ Weighted product" style="shape=parallelogram;html=1;strokeWidth=2;perimeter=parallelogramPerimeter;whiteSpace=wrap;rounded=1;arcSize=23;size=0;" vertex="1" parent="1">
          <mxGeometry x="980" y="1450.5555555555557" width="140" height="40" as="geometry" />
        </mxCell>
        <mxCell id="7XZhA4TsvUJ1Mmdb0Nh9-85" style="edgeStyle=orthogonalEdgeStyle;rounded=0;orthogonalLoop=1;jettySize=auto;html=1;exitX=1;exitY=0.5;exitDx=0;exitDy=0;entryX=0;entryY=0.5;entryDx=0;entryDy=0;strokeWidth=1;noEdgeStyle=1;orthogonal=1;" edge="1" parent="1" source="7XZhA4TsvUJ1Mmdb0Nh9-86" target="7XZhA4TsvUJ1Mmdb0Nh9-76">
          <mxGeometry relative="1" as="geometry">
            <Array as="points">
              <mxPoint x="712" y="1117.2543988890584" />
              <mxPoint x="750" y="1045" />
              <mxPoint x="930" y="1045" />
              <mxPoint x="930" y="1045" />
              <mxPoint x="1170" y="1045" />
              <mxPoint x="1208" y="1387.5" />
            </Array>
          </mxGeometry>
        </mxCell>
        <mxCell id="7XZhA4TsvUJ1Mmdb0Nh9-86" value="Shape descriptors" style="shape=parallelogram;html=1;strokeWidth=2;perimeter=parallelogramPerimeter;whiteSpace=wrap;rounded=1;arcSize=23;size=0;" vertex="1" parent="1">
          <mxGeometry x="560" y="1097.2543988890584" width="140" height="40" as="geometry" />
        </mxCell>
        <mxCell id="7XZhA4TsvUJ1Mmdb0Nh9-87" style="edgeStyle=orthogonalEdgeStyle;rounded=0;orthogonalLoop=1;jettySize=auto;html=1;exitX=1;exitY=0.5;exitDx=0;exitDy=0;endArrow=classic;endFill=1;strokeWidth=1;entryX=0;entryY=0.5;entryDx=0;entryDy=0;noEdgeStyle=1;orthogonal=1;" edge="1" parent="1" source="7XZhA4TsvUJ1Mmdb0Nh9-88" target="7XZhA4TsvUJ1Mmdb0Nh9-12">
          <mxGeometry relative="1" as="geometry">
            <mxPoint x="60" y="520" as="targetPoint" />
            <Array as="points">
              <mxPoint x="232" y="680" />
              <mxPoint x="308" y="1580" />
            </Array>
          </mxGeometry>
        </mxCell>
        <mxCell id="7XZhA4TsvUJ1Mmdb0Nh9-88" value="&lt;span style=&quot;font-weight: normal&quot;&gt;Surrounding&lt;/span&gt;" style="shape=parallelogram;html=1;strokeWidth=2;perimeter=parallelogramPerimeter;whiteSpace=wrap;rounded=1;arcSize=12;size=0.07500000000000001;fillColor=#f5f5f5;fontColor=#333333;strokeColor=#050505;fontStyle=1" vertex="1" parent="1">
          <mxGeometry x="110" y="660" width="80" height="40" as="geometry" />
        </mxCell>
        <mxCell id="7XZhA4TsvUJ1Mmdb0Nh9-89" style="edgeStyle=orthogonalEdgeStyle;rounded=0;orthogonalLoop=1;jettySize=auto;html=1;exitX=1;exitY=0.5;exitDx=0;exitDy=0;entryX=0;entryY=0.5;entryDx=0;entryDy=0;endArrow=classic;endFill=1;strokeWidth=1;noEdgeStyle=1;orthogonal=1;" edge="1" parent="1" source="7XZhA4TsvUJ1Mmdb0Nh9-90" target="7XZhA4TsvUJ1Mmdb0Nh9-12">
          <mxGeometry relative="1" as="geometry">
            <Array as="points">
              <mxPoint x="232" y="750" />
              <mxPoint x="306" y="1590" />
            </Array>
          </mxGeometry>
        </mxCell>
        <mxCell id="7XZhA4TsvUJ1Mmdb0Nh9-90" value="Building" style="shape=parallelogram;html=1;strokeWidth=2;perimeter=parallelogramPerimeter;whiteSpace=wrap;rounded=1;arcSize=12;size=0.07500000000000001;fillColor=#f5f5f5;fontColor=#333333;strokeColor=#050505;fontStyle=0" vertex="1" parent="1">
          <mxGeometry x="110" y="730" width="80" height="40" as="geometry" />
        </mxCell>
        <mxCell id="7XZhA4TsvUJ1Mmdb0Nh9-91" style="edgeStyle=orthogonalEdgeStyle;rounded=0;orthogonalLoop=1;jettySize=auto;html=1;exitX=1;exitY=0.5;exitDx=0;exitDy=0;entryX=0;entryY=0.5;entryDx=0;entryDy=0;endArrow=classic;endFill=1;strokeWidth=1;noEdgeStyle=1;orthogonal=1;" edge="1" parent="1" source="7XZhA4TsvUJ1Mmdb0Nh9-92" target="7XZhA4TsvUJ1Mmdb0Nh9-12">
          <mxGeometry relative="1" as="geometry">
            <Array as="points">
              <mxPoint x="232" y="820" />
              <mxPoint x="308" y="1600" />
            </Array>
          </mxGeometry>
        </mxCell>
        <mxCell id="7XZhA4TsvUJ1Mmdb0Nh9-92" value="Existing world" style="shape=parallelogram;html=1;strokeWidth=2;perimeter=parallelogramPerimeter;whiteSpace=wrap;rounded=1;arcSize=12;size=0.07500000000000001;fillColor=#f5f5f5;fontColor=#333333;strokeColor=#050505;fontStyle=0" vertex="1" parent="1">
          <mxGeometry x="110" y="800" width="80" height="40" as="geometry" />
        </mxCell>
        <mxCell id="7XZhA4TsvUJ1Mmdb0Nh9-93" style="edgeStyle=orthogonalEdgeStyle;rounded=0;orthogonalLoop=1;jettySize=auto;html=1;exitX=1;exitY=0.5;exitDx=0;exitDy=0;entryX=0;entryY=0.5;entryDx=0;entryDy=0;endArrow=classic;endFill=1;strokeWidth=1;noEdgeStyle=1;orthogonal=1;" edge="1" parent="1" source="7XZhA4TsvUJ1Mmdb0Nh9-94" target="7XZhA4TsvUJ1Mmdb0Nh9-15">
          <mxGeometry relative="1" as="geometry">
            <Array as="points">
              <mxPoint x="232" y="890" />
              <mxPoint x="308" y="1729.5431465855572" />
            </Array>
          </mxGeometry>
        </mxCell>
        <mxCell id="7XZhA4TsvUJ1Mmdb0Nh9-94" value="Student Housing" style="shape=parallelogram;html=1;strokeWidth=2;perimeter=parallelogramPerimeter;whiteSpace=wrap;rounded=1;arcSize=12;size=0.07500000000000001;fillColor=#f5f5f5;fontColor=#333333;strokeColor=#050505;" vertex="1" parent="1">
          <mxGeometry x="110" y="870" width="80" height="40" as="geometry" />
        </mxCell>
        <mxCell id="7XZhA4TsvUJ1Mmdb0Nh9-95" style="edgeStyle=orthogonalEdgeStyle;rounded=0;orthogonalLoop=1;jettySize=auto;html=1;exitX=1;exitY=0.5;exitDx=0;exitDy=0;entryX=0;entryY=0.5;entryDx=0;entryDy=0;endArrow=classic;endFill=1;strokeWidth=1;noEdgeStyle=1;orthogonal=1;" edge="1" parent="1" source="7XZhA4TsvUJ1Mmdb0Nh9-96" target="7XZhA4TsvUJ1Mmdb0Nh9-15">
          <mxGeometry relative="1" as="geometry">
            <Array as="points">
              <mxPoint x="232" y="960" />
              <mxPoint x="306" y="1731.0816081240187" />
            </Array>
          </mxGeometry>
        </mxCell>
        <mxCell id="7XZhA4TsvUJ1Mmdb0Nh9-96" value="Co-cooking A" style="shape=parallelogram;html=1;strokeWidth=2;perimeter=parallelogramPerimeter;whiteSpace=wrap;rounded=1;arcSize=12;size=0.07500000000000001;fillColor=#f5f5f5;fontColor=#333333;strokeColor=#050505;" vertex="1" parent="1">
          <mxGeometry x="110" y="940" width="80" height="40" as="geometry" />
        </mxCell>
        <mxCell id="7XZhA4TsvUJ1Mmdb0Nh9-97" style="edgeStyle=orthogonalEdgeStyle;rounded=0;orthogonalLoop=1;jettySize=auto;html=1;exitX=1;exitY=0.5;exitDx=0;exitDy=0;entryX=0;entryY=0.5;entryDx=0;entryDy=0;endArrow=classic;endFill=1;strokeWidth=1;noEdgeStyle=1;orthogonal=1;" edge="1" parent="1" source="7XZhA4TsvUJ1Mmdb0Nh9-98" target="7XZhA4TsvUJ1Mmdb0Nh9-15">
          <mxGeometry relative="1" as="geometry">
            <Array as="points">
              <mxPoint x="232" y="1030" />
              <mxPoint x="304" y="1732.62006966248" />
            </Array>
          </mxGeometry>
        </mxCell>
        <mxCell id="7XZhA4TsvUJ1Mmdb0Nh9-98" value="Assisted Living" style="shape=parallelogram;html=1;strokeWidth=2;perimeter=parallelogramPerimeter;whiteSpace=wrap;rounded=1;arcSize=12;size=0.07500000000000001;fillColor=#f5f5f5;fontColor=#333333;strokeColor=#050505;" vertex="1" parent="1">
          <mxGeometry x="110" y="1010" width="80" height="40" as="geometry" />
        </mxCell>
        <mxCell id="7XZhA4TsvUJ1Mmdb0Nh9-99" style="edgeStyle=orthogonalEdgeStyle;rounded=0;orthogonalLoop=1;jettySize=auto;html=1;exitX=1;exitY=0.5;exitDx=0;exitDy=0;entryX=0;entryY=0.5;entryDx=0;entryDy=0;endArrow=classic;endFill=1;strokeWidth=1;noEdgeStyle=1;orthogonal=1;" edge="1" parent="1" source="7XZhA4TsvUJ1Mmdb0Nh9-100" target="7XZhA4TsvUJ1Mmdb0Nh9-15">
          <mxGeometry relative="1" as="geometry">
            <Array as="points">
              <mxPoint x="232" y="1100" />
              <mxPoint x="302" y="1734.1585312009415" />
            </Array>
          </mxGeometry>
        </mxCell>
        <mxCell id="7XZhA4TsvUJ1Mmdb0Nh9-100" value="Co-cooking B" style="shape=parallelogram;html=1;strokeWidth=2;perimeter=parallelogramPerimeter;whiteSpace=wrap;rounded=1;arcSize=12;size=0.07500000000000001;fillColor=#f5f5f5;fontColor=#333333;strokeColor=#050505;" vertex="1" parent="1">
          <mxGeometry x="110" y="1080" width="80" height="40" as="geometry" />
        </mxCell>
        <mxCell id="7XZhA4TsvUJ1Mmdb0Nh9-101" style="edgeStyle=orthogonalEdgeStyle;rounded=0;orthogonalLoop=1;jettySize=auto;html=1;exitX=1;exitY=0.5;exitDx=0;exitDy=0;entryX=0;entryY=0.5;entryDx=0;entryDy=0;endArrow=classic;endFill=1;strokeWidth=1;noEdgeStyle=1;orthogonal=1;" edge="1" parent="1" source="7XZhA4TsvUJ1Mmdb0Nh9-102" target="7XZhA4TsvUJ1Mmdb0Nh9-15">
          <mxGeometry relative="1" as="geometry">
            <Array as="points">
              <mxPoint x="232" y="1170" />
              <mxPoint x="300" y="1735.696992739403" />
            </Array>
          </mxGeometry>
        </mxCell>
        <mxCell id="7XZhA4TsvUJ1Mmdb0Nh9-102" value="Starter Housing" style="shape=parallelogram;html=1;strokeWidth=2;perimeter=parallelogramPerimeter;whiteSpace=wrap;rounded=1;arcSize=12;size=0.07500000000000001;fillColor=#f5f5f5;fontColor=#333333;strokeColor=#050505;" vertex="1" parent="1">
          <mxGeometry x="110" y="1150" width="80" height="40" as="geometry" />
        </mxCell>
        <mxCell id="7XZhA4TsvUJ1Mmdb0Nh9-103" style="edgeStyle=orthogonalEdgeStyle;rounded=0;orthogonalLoop=1;jettySize=auto;html=1;exitX=1;exitY=0.5;exitDx=0;exitDy=0;entryX=0;entryY=0.5;entryDx=0;entryDy=0;endArrow=classic;endFill=1;strokeWidth=1;noEdgeStyle=1;orthogonal=1;" edge="1" parent="1" source="7XZhA4TsvUJ1Mmdb0Nh9-104" target="7XZhA4TsvUJ1Mmdb0Nh9-15">
          <mxGeometry relative="1" as="geometry">
            <Array as="points">
              <mxPoint x="232" y="1240" />
              <mxPoint x="298" y="1737.2354542778644" />
            </Array>
          </mxGeometry>
        </mxCell>
        <mxCell id="7XZhA4TsvUJ1Mmdb0Nh9-104" value="Co-cooking C" style="shape=parallelogram;html=1;strokeWidth=2;perimeter=parallelogramPerimeter;whiteSpace=wrap;rounded=1;arcSize=12;size=0.07500000000000001;fillColor=#f5f5f5;fontColor=#333333;strokeColor=#050505;" vertex="1" parent="1">
          <mxGeometry x="110" y="1220" width="80" height="40" as="geometry" />
        </mxCell>
        <mxCell id="7XZhA4TsvUJ1Mmdb0Nh9-105" style="edgeStyle=orthogonalEdgeStyle;rounded=0;orthogonalLoop=1;jettySize=auto;html=1;exitX=1;exitY=0.5;exitDx=0;exitDy=0;endArrow=classic;endFill=1;strokeWidth=1;entryX=0;entryY=0.5;entryDx=0;entryDy=0;noEdgeStyle=1;orthogonal=1;" edge="1" parent="1" source="7XZhA4TsvUJ1Mmdb0Nh9-106" target="7XZhA4TsvUJ1Mmdb0Nh9-15">
          <mxGeometry relative="1" as="geometry">
            <mxPoint x="30" y="920" as="targetPoint" />
            <Array as="points">
              <mxPoint x="232" y="1310" />
              <mxPoint x="296" y="1738.7739158163258" />
            </Array>
          </mxGeometry>
        </mxCell>
        <mxCell id="7XZhA4TsvUJ1Mmdb0Nh9-106" value="Co-working" style="shape=parallelogram;html=1;strokeWidth=2;perimeter=parallelogramPerimeter;whiteSpace=wrap;rounded=1;arcSize=12;size=0.07500000000000001;fillColor=#f5f5f5;fontColor=#333333;strokeColor=#050505;" vertex="1" parent="1">
          <mxGeometry x="110" y="1290" width="80" height="40" as="geometry" />
        </mxCell>
        <mxCell id="7XZhA4TsvUJ1Mmdb0Nh9-107" style="edgeStyle=orthogonalEdgeStyle;rounded=0;orthogonalLoop=1;jettySize=auto;html=1;exitX=1;exitY=0.5;exitDx=0;exitDy=0;entryX=0;entryY=0.5;entryDx=0;entryDy=0;endArrow=classic;endFill=1;strokeWidth=1;noEdgeStyle=1;orthogonal=1;" edge="1" parent="1" source="7XZhA4TsvUJ1Mmdb0Nh9-108" target="7XZhA4TsvUJ1Mmdb0Nh9-15">
          <mxGeometry relative="1" as="geometry">
            <Array as="points">
              <mxPoint x="232" y="1380" />
              <mxPoint x="294" y="1740.3123773547873" />
            </Array>
          </mxGeometry>
        </mxCell>
        <mxCell id="7XZhA4TsvUJ1Mmdb0Nh9-108" value="Community center" style="shape=parallelogram;html=1;strokeWidth=2;perimeter=parallelogramPerimeter;whiteSpace=wrap;rounded=1;arcSize=12;size=0.07500000000000001;fillColor=#f5f5f5;fontColor=#333333;strokeColor=#050505;" vertex="1" parent="1">
          <mxGeometry x="110" y="1360" width="80" height="40" as="geometry" />
        </mxCell>
        <mxCell id="7XZhA4TsvUJ1Mmdb0Nh9-109" style="edgeStyle=orthogonalEdgeStyle;rounded=0;orthogonalLoop=1;jettySize=auto;html=1;exitX=1;exitY=0.5;exitDx=0;exitDy=0;entryX=0;entryY=0.5;entryDx=0;entryDy=0;endArrow=classic;endFill=1;strokeWidth=1;noEdgeStyle=1;orthogonal=1;" edge="1" parent="1" source="7XZhA4TsvUJ1Mmdb0Nh9-110" target="7XZhA4TsvUJ1Mmdb0Nh9-15">
          <mxGeometry relative="1" as="geometry">
            <Array as="points">
              <mxPoint x="232" y="1450" />
              <mxPoint x="292" y="1741.8508388932487" />
            </Array>
          </mxGeometry>
        </mxCell>
        <mxCell id="7XZhA4TsvUJ1Mmdb0Nh9-110" value="Library" style="shape=parallelogram;html=1;strokeWidth=2;perimeter=parallelogramPerimeter;whiteSpace=wrap;rounded=1;arcSize=12;size=0.07500000000000001;fillColor=#f5f5f5;fontColor=#333333;strokeColor=#050505;" vertex="1" parent="1">
          <mxGeometry x="110" y="1430" width="80" height="40" as="geometry" />
        </mxCell>
        <mxCell id="7XZhA4TsvUJ1Mmdb0Nh9-111" style="edgeStyle=orthogonalEdgeStyle;rounded=0;orthogonalLoop=1;jettySize=auto;html=1;exitX=1;exitY=0.5;exitDx=0;exitDy=0;entryX=0;entryY=0.5;entryDx=0;entryDy=0;endArrow=classic;endFill=1;strokeWidth=1;noEdgeStyle=1;orthogonal=1;" edge="1" parent="1" source="7XZhA4TsvUJ1Mmdb0Nh9-112" target="7XZhA4TsvUJ1Mmdb0Nh9-15">
          <mxGeometry relative="1" as="geometry">
            <Array as="points">
              <mxPoint x="232" y="1520" />
              <mxPoint x="290" y="1743.3893004317101" />
            </Array>
          </mxGeometry>
        </mxCell>
        <mxCell id="7XZhA4TsvUJ1Mmdb0Nh9-112" value="Cinematheque" style="shape=parallelogram;html=1;strokeWidth=2;perimeter=parallelogramPerimeter;whiteSpace=wrap;rounded=1;arcSize=12;size=0.07500000000000001;fillColor=#f5f5f5;fontColor=#333333;strokeColor=#050505;" vertex="1" parent="1">
          <mxGeometry x="110" y="1500" width="80" height="40" as="geometry" />
        </mxCell>
        <mxCell id="7XZhA4TsvUJ1Mmdb0Nh9-113" style="edgeStyle=orthogonalEdgeStyle;rounded=0;orthogonalLoop=1;jettySize=auto;html=1;exitX=1;exitY=0.5;exitDx=0;exitDy=0;entryX=0;entryY=0.5;entryDx=0;entryDy=0;endArrow=classic;endFill=1;strokeWidth=1;noEdgeStyle=1;orthogonal=1;" edge="1" parent="1" source="7XZhA4TsvUJ1Mmdb0Nh9-114" target="7XZhA4TsvUJ1Mmdb0Nh9-15">
          <mxGeometry relative="1" as="geometry">
            <Array as="points">
              <mxPoint x="232" y="1590" />
              <mxPoint x="288" y="1744.9277619701716" />
            </Array>
          </mxGeometry>
        </mxCell>
        <mxCell id="7XZhA4TsvUJ1Mmdb0Nh9-114" value="Laundry" style="shape=parallelogram;html=1;strokeWidth=2;perimeter=parallelogramPerimeter;whiteSpace=wrap;rounded=1;arcSize=12;size=0.07500000000000001;fillColor=#f5f5f5;fontColor=#333333;strokeColor=#050505;" vertex="1" parent="1">
          <mxGeometry x="110" y="1570" width="80" height="40" as="geometry" />
        </mxCell>
        <mxCell id="7XZhA4TsvUJ1Mmdb0Nh9-115" style="edgeStyle=orthogonalEdgeStyle;rounded=0;orthogonalLoop=1;jettySize=auto;html=1;exitX=1;exitY=0.5;exitDx=0;exitDy=0;entryX=0;entryY=0.5;entryDx=0;entryDy=0;endArrow=classic;endFill=1;strokeWidth=1;noEdgeStyle=1;orthogonal=1;" edge="1" parent="1" source="7XZhA4TsvUJ1Mmdb0Nh9-116" target="7XZhA4TsvUJ1Mmdb0Nh9-15">
          <mxGeometry relative="1" as="geometry">
            <Array as="points">
              <mxPoint x="232" y="1660" />
              <mxPoint x="286" y="1746.466223508633" />
            </Array>
          </mxGeometry>
        </mxCell>
        <mxCell id="7XZhA4TsvUJ1Mmdb0Nh9-116" value="Fab labs" style="shape=parallelogram;html=1;strokeWidth=2;perimeter=parallelogramPerimeter;whiteSpace=wrap;rounded=1;arcSize=12;size=0.07500000000000001;fillColor=#f5f5f5;fontColor=#333333;strokeColor=#050505;" vertex="1" parent="1">
          <mxGeometry x="110" y="1640" width="80" height="40" as="geometry" />
        </mxCell>
        <mxCell id="7XZhA4TsvUJ1Mmdb0Nh9-117" style="edgeStyle=orthogonalEdgeStyle;rounded=0;orthogonalLoop=1;jettySize=auto;html=1;exitX=1;exitY=0.5;exitDx=0;exitDy=0;entryX=0;entryY=0.5;entryDx=0;entryDy=0;endArrow=classic;endFill=1;strokeWidth=1;noEdgeStyle=1;orthogonal=1;" edge="1" parent="1" source="7XZhA4TsvUJ1Mmdb0Nh9-118" target="7XZhA4TsvUJ1Mmdb0Nh9-15">
          <mxGeometry relative="1" as="geometry">
            <Array as="points">
              <mxPoint x="232" y="1730" />
              <mxPoint x="284" y="1748.0046850470944" />
            </Array>
          </mxGeometry>
        </mxCell>
        <mxCell id="7XZhA4TsvUJ1Mmdb0Nh9-118" value="Start-ups" style="shape=parallelogram;html=1;strokeWidth=2;perimeter=parallelogramPerimeter;whiteSpace=wrap;rounded=1;arcSize=12;size=0.07500000000000001;fillColor=#f5f5f5;fontColor=#333333;strokeColor=#050505;" vertex="1" parent="1">
          <mxGeometry x="110" y="1710" width="80" height="40" as="geometry" />
        </mxCell>
        <mxCell id="7XZhA4TsvUJ1Mmdb0Nh9-119" style="edgeStyle=orthogonalEdgeStyle;rounded=0;orthogonalLoop=1;jettySize=auto;html=1;exitX=1;exitY=0.5;exitDx=0;exitDy=0;entryX=0;entryY=0.5;entryDx=0;entryDy=0;endArrow=classic;endFill=1;strokeWidth=1;noEdgeStyle=1;orthogonal=1;" edge="1" parent="1" source="7XZhA4TsvUJ1Mmdb0Nh9-120" target="7XZhA4TsvUJ1Mmdb0Nh9-15">
          <mxGeometry relative="1" as="geometry">
            <Array as="points">
              <mxPoint x="232" y="1800" />
              <mxPoint x="284" y="1749.5431465855559" />
            </Array>
          </mxGeometry>
        </mxCell>
        <mxCell id="7XZhA4TsvUJ1Mmdb0Nh9-120" value="Workshop" style="shape=parallelogram;html=1;strokeWidth=2;perimeter=parallelogramPerimeter;whiteSpace=wrap;rounded=1;arcSize=12;size=0.07500000000000001;fillColor=#f5f5f5;fontColor=#333333;strokeColor=#050505;" vertex="1" parent="1">
          <mxGeometry x="110" y="1780" width="80" height="40" as="geometry" />
        </mxCell>
        <mxCell id="7XZhA4TsvUJ1Mmdb0Nh9-121" style="edgeStyle=orthogonalEdgeStyle;rounded=0;orthogonalLoop=1;jettySize=auto;html=1;exitX=1;exitY=0.5;exitDx=0;exitDy=0;entryX=0;entryY=0.5;entryDx=0;entryDy=0;endArrow=classic;endFill=1;strokeWidth=1;noEdgeStyle=1;orthogonal=1;" edge="1" parent="1" source="7XZhA4TsvUJ1Mmdb0Nh9-122" target="7XZhA4TsvUJ1Mmdb0Nh9-15">
          <mxGeometry relative="1" as="geometry">
            <Array as="points">
              <mxPoint x="232" y="1870" />
              <mxPoint x="286" y="1751.0816081240173" />
            </Array>
          </mxGeometry>
        </mxCell>
        <mxCell id="7XZhA4TsvUJ1Mmdb0Nh9-122" value="Car parking" style="shape=parallelogram;html=1;strokeWidth=2;perimeter=parallelogramPerimeter;whiteSpace=wrap;rounded=1;arcSize=12;size=0.07500000000000001;fillColor=#f5f5f5;fontColor=#333333;strokeColor=#050505;" vertex="1" parent="1">
          <mxGeometry x="110" y="1850" width="80" height="40" as="geometry" />
        </mxCell>
        <mxCell id="7XZhA4TsvUJ1Mmdb0Nh9-123" style="edgeStyle=orthogonalEdgeStyle;rounded=0;orthogonalLoop=1;jettySize=auto;html=1;exitX=1;exitY=0.5;exitDx=0;exitDy=0;entryX=0;entryY=0.5;entryDx=0;entryDy=0;endArrow=classic;endFill=1;strokeWidth=1;noEdgeStyle=1;orthogonal=1;" edge="1" parent="1" source="7XZhA4TsvUJ1Mmdb0Nh9-124" target="7XZhA4TsvUJ1Mmdb0Nh9-15">
          <mxGeometry relative="1" as="geometry">
            <Array as="points">
              <mxPoint x="232" y="1940" />
              <mxPoint x="288" y="1752.6200696624787" />
            </Array>
          </mxGeometry>
        </mxCell>
        <mxCell id="7XZhA4TsvUJ1Mmdb0Nh9-124" value="Bike parking" style="shape=parallelogram;html=1;strokeWidth=2;perimeter=parallelogramPerimeter;whiteSpace=wrap;rounded=1;arcSize=12;size=0.07500000000000001;fillColor=#f5f5f5;fontColor=#333333;strokeColor=#050505;" vertex="1" parent="1">
          <mxGeometry x="110" y="1920" width="80" height="40" as="geometry" />
        </mxCell>
        <mxCell id="7XZhA4TsvUJ1Mmdb0Nh9-125" style="edgeStyle=orthogonalEdgeStyle;rounded=0;orthogonalLoop=1;jettySize=auto;html=1;exitX=1;exitY=0.5;exitDx=0;exitDy=0;endArrow=classic;endFill=1;strokeWidth=1;entryX=0;entryY=0.5;entryDx=0;entryDy=0;noEdgeStyle=1;orthogonal=1;" edge="1" parent="1" source="7XZhA4TsvUJ1Mmdb0Nh9-126" target="7XZhA4TsvUJ1Mmdb0Nh9-15">
          <mxGeometry relative="1" as="geometry">
            <mxPoint x="350" y="1490" as="targetPoint" />
            <Array as="points">
              <mxPoint x="232" y="2010" />
              <mxPoint x="290" y="1754.1585312009402" />
            </Array>
          </mxGeometry>
        </mxCell>
        <mxCell id="7XZhA4TsvUJ1Mmdb0Nh9-126" value="Shops" style="shape=parallelogram;html=1;strokeWidth=2;perimeter=parallelogramPerimeter;whiteSpace=wrap;rounded=1;arcSize=12;size=0.07500000000000001;fillColor=#f5f5f5;fontColor=#333333;strokeColor=#050505;" vertex="1" parent="1">
          <mxGeometry x="110" y="1990" width="80" height="40" as="geometry" />
        </mxCell>
        <mxCell id="7XZhA4TsvUJ1Mmdb0Nh9-127" style="edgeStyle=orthogonalEdgeStyle;rounded=0;orthogonalLoop=1;jettySize=auto;html=1;exitX=1;exitY=0.5;exitDx=0;exitDy=0;entryX=0;entryY=0.5;entryDx=0;entryDy=0;endArrow=classic;endFill=1;strokeWidth=1;noEdgeStyle=1;orthogonal=1;" edge="1" parent="1" source="7XZhA4TsvUJ1Mmdb0Nh9-128" target="7XZhA4TsvUJ1Mmdb0Nh9-15">
          <mxGeometry relative="1" as="geometry">
            <Array as="points">
              <mxPoint x="232" y="2080" />
              <mxPoint x="292" y="1755.6969927394016" />
            </Array>
          </mxGeometry>
        </mxCell>
        <mxCell id="7XZhA4TsvUJ1Mmdb0Nh9-128" value="Grocery store" style="shape=parallelogram;html=1;strokeWidth=2;perimeter=parallelogramPerimeter;whiteSpace=wrap;rounded=1;arcSize=12;size=0.07500000000000001;fillColor=#f5f5f5;fontColor=#333333;strokeColor=#050505;" vertex="1" parent="1">
          <mxGeometry x="110" y="2060" width="80" height="40" as="geometry" />
        </mxCell>
        <mxCell id="7XZhA4TsvUJ1Mmdb0Nh9-129" style="edgeStyle=orthogonalEdgeStyle;rounded=0;orthogonalLoop=1;jettySize=auto;html=1;exitX=1;exitY=0.5;exitDx=0;exitDy=0;endArrow=classic;endFill=1;strokeWidth=1;entryX=0;entryY=0.5;entryDx=0;entryDy=0;noEdgeStyle=1;orthogonal=1;" edge="1" parent="1" source="7XZhA4TsvUJ1Mmdb0Nh9-130" target="7XZhA4TsvUJ1Mmdb0Nh9-15">
          <mxGeometry relative="1" as="geometry">
            <mxPoint x="360" y="1490" as="targetPoint" />
            <Array as="points">
              <mxPoint x="232" y="2150" />
              <mxPoint x="294" y="1757.235454277863" />
            </Array>
          </mxGeometry>
        </mxCell>
        <mxCell id="7XZhA4TsvUJ1Mmdb0Nh9-130" value="Gym" style="shape=parallelogram;html=1;strokeWidth=2;perimeter=parallelogramPerimeter;whiteSpace=wrap;rounded=1;arcSize=12;size=0.07500000000000001;fillColor=#f5f5f5;fontColor=#333333;strokeColor=#050505;" vertex="1" parent="1">
          <mxGeometry x="110" y="2130" width="80" height="40" as="geometry" />
        </mxCell>
        <mxCell id="7XZhA4TsvUJ1Mmdb0Nh9-131" style="edgeStyle=orthogonalEdgeStyle;rounded=0;orthogonalLoop=1;jettySize=auto;html=1;exitX=1;exitY=0.5;exitDx=0;exitDy=0;endArrow=classic;endFill=1;strokeWidth=1;entryX=0;entryY=0.5;entryDx=0;entryDy=0;noEdgeStyle=1;orthogonal=1;" edge="1" parent="1" source="7XZhA4TsvUJ1Mmdb0Nh9-132" target="7XZhA4TsvUJ1Mmdb0Nh9-15">
          <mxGeometry relative="1" as="geometry">
            <mxPoint x="380" y="1510" as="targetPoint" />
            <Array as="points">
              <mxPoint x="232" y="2220" />
              <mxPoint x="296" y="1758.7739158163245" />
            </Array>
          </mxGeometry>
        </mxCell>
        <mxCell id="7XZhA4TsvUJ1Mmdb0Nh9-132" value="Drug store" style="shape=parallelogram;html=1;strokeWidth=2;perimeter=parallelogramPerimeter;whiteSpace=wrap;rounded=1;arcSize=12;size=0.07500000000000001;fillColor=#f5f5f5;fontColor=#333333;strokeColor=#050505;" vertex="1" parent="1">
          <mxGeometry x="110" y="2200" width="80" height="40" as="geometry" />
        </mxCell>
        <mxCell id="7XZhA4TsvUJ1Mmdb0Nh9-133" style="edgeStyle=orthogonalEdgeStyle;rounded=0;orthogonalLoop=1;jettySize=auto;html=1;exitX=1;exitY=0.5;exitDx=0;exitDy=0;endArrow=classic;endFill=1;strokeWidth=1;entryX=0;entryY=0.5;entryDx=0;entryDy=0;noEdgeStyle=1;orthogonal=1;" edge="1" parent="1" source="7XZhA4TsvUJ1Mmdb0Nh9-134" target="7XZhA4TsvUJ1Mmdb0Nh9-15">
          <mxGeometry relative="1" as="geometry">
            <mxPoint x="350" y="1550" as="targetPoint" />
            <Array as="points">
              <mxPoint x="232" y="2290" />
              <mxPoint x="298" y="1760.312377354786" />
            </Array>
          </mxGeometry>
        </mxCell>
        <mxCell id="7XZhA4TsvUJ1Mmdb0Nh9-134" value="Restaurant" style="shape=parallelogram;html=1;strokeWidth=2;perimeter=parallelogramPerimeter;whiteSpace=wrap;rounded=1;arcSize=12;size=0.07500000000000001;fillColor=#f5f5f5;fontColor=#333333;strokeColor=#050505;" vertex="1" parent="1">
          <mxGeometry x="110" y="2270" width="80" height="40" as="geometry" />
        </mxCell>
        <mxCell id="7XZhA4TsvUJ1Mmdb0Nh9-135" style="edgeStyle=orthogonalEdgeStyle;rounded=0;orthogonalLoop=1;jettySize=auto;html=1;exitX=1;exitY=0.5;exitDx=0;exitDy=0;endArrow=classic;endFill=1;strokeWidth=1;entryX=0;entryY=0.5;entryDx=0;entryDy=0;noEdgeStyle=1;orthogonal=1;" edge="1" parent="1" source="7XZhA4TsvUJ1Mmdb0Nh9-136" target="7XZhA4TsvUJ1Mmdb0Nh9-15">
          <mxGeometry relative="1" as="geometry">
            <mxPoint x="360" y="1550" as="targetPoint" />
            <Array as="points">
              <mxPoint x="232" y="2360" />
              <mxPoint x="300" y="1761.8508388932473" />
            </Array>
          </mxGeometry>
        </mxCell>
        <mxCell id="7XZhA4TsvUJ1Mmdb0Nh9-136" value="Vegetation" style="shape=parallelogram;html=1;strokeWidth=2;perimeter=parallelogramPerimeter;whiteSpace=wrap;rounded=1;arcSize=12;size=0.07500000000000001;fillColor=#f5f5f5;fontColor=#333333;strokeColor=#050505;" vertex="1" parent="1">
          <mxGeometry x="110" y="2340" width="80" height="40" as="geometry" />
        </mxCell>
        <mxCell id="7XZhA4TsvUJ1Mmdb0Nh9-137" style="edgeStyle=orthogonalEdgeStyle;rounded=0;orthogonalLoop=1;jettySize=auto;html=1;exitX=1;exitY=0.5;exitDx=0;exitDy=0;endArrow=classic;endFill=1;strokeWidth=1;entryX=0;entryY=0.5;entryDx=0;entryDy=0;noEdgeStyle=1;orthogonal=1;" edge="1" parent="1" source="7XZhA4TsvUJ1Mmdb0Nh9-138" target="7XZhA4TsvUJ1Mmdb0Nh9-15">
          <mxGeometry relative="1" as="geometry">
            <mxPoint x="370" y="1550" as="targetPoint" />
            <Array as="points">
              <mxPoint x="232" y="2430" />
              <mxPoint x="302" y="1763.3893004317088" />
            </Array>
          </mxGeometry>
        </mxCell>
        <mxCell id="7XZhA4TsvUJ1Mmdb0Nh9-138" value="Lobby" style="shape=parallelogram;html=1;strokeWidth=2;perimeter=parallelogramPerimeter;whiteSpace=wrap;rounded=1;arcSize=12;size=0.07500000000000001;fillColor=#f5f5f5;fontColor=#333333;strokeColor=#050505;" vertex="1" parent="1">
          <mxGeometry x="110" y="2410" width="80" height="40" as="geometry" />
        </mxCell>
        <mxCell id="7XZhA4TsvUJ1Mmdb0Nh9-139" style="edgeStyle=orthogonalEdgeStyle;rounded=0;orthogonalLoop=1;jettySize=auto;html=1;exitX=1;exitY=0.5;exitDx=0;exitDy=0;entryX=0;entryY=0.5;entryDx=0;entryDy=0;endArrow=classic;endFill=1;strokeWidth=1;noEdgeStyle=1;orthogonal=1;" edge="1" parent="1" source="7XZhA4TsvUJ1Mmdb0Nh9-140" target="7XZhA4TsvUJ1Mmdb0Nh9-15">
          <mxGeometry relative="1" as="geometry">
            <Array as="points">
              <mxPoint x="232" y="2500" />
              <mxPoint x="304" y="1764.9277619701702" />
            </Array>
          </mxGeometry>
        </mxCell>
        <mxCell id="7XZhA4TsvUJ1Mmdb0Nh9-140" value="Communal garden" style="shape=parallelogram;html=1;strokeWidth=2;perimeter=parallelogramPerimeter;whiteSpace=wrap;rounded=1;arcSize=12;size=0.07500000000000001;fillColor=#f5f5f5;fontColor=#333333;strokeColor=#050505;" vertex="1" parent="1">
          <mxGeometry x="110" y="2480" width="80" height="40" as="geometry" />
        </mxCell>
        <mxCell id="7XZhA4TsvUJ1Mmdb0Nh9-141" style="edgeStyle=orthogonalEdgeStyle;rounded=0;orthogonalLoop=1;jettySize=auto;html=1;exitX=1;exitY=0.5;exitDx=0;exitDy=0;endArrow=classic;endFill=1;strokeWidth=1;entryX=0;entryY=0.5;entryDx=0;entryDy=0;noEdgeStyle=1;orthogonal=1;" edge="1" parent="1" source="7XZhA4TsvUJ1Mmdb0Nh9-142" target="7XZhA4TsvUJ1Mmdb0Nh9-15">
          <mxGeometry relative="1" as="geometry">
            <mxPoint x="320" y="1310" as="targetPoint" />
            <Array as="points">
              <mxPoint x="232" y="2570" />
              <mxPoint x="306" y="1766.4662235086316" />
            </Array>
          </mxGeometry>
        </mxCell>
        <mxCell id="7XZhA4TsvUJ1Mmdb0Nh9-142" value="Arcade" style="shape=parallelogram;html=1;strokeWidth=2;perimeter=parallelogramPerimeter;whiteSpace=wrap;rounded=1;arcSize=12;size=0.07500000000000001;fillColor=#f5f5f5;fontColor=#333333;strokeColor=#050505;" vertex="1" parent="1">
          <mxGeometry x="110" y="2550" width="80" height="40" as="geometry" />
        </mxCell>
        <mxCell id="7XZhA4TsvUJ1Mmdb0Nh9-143" style="edgeStyle=orthogonalEdgeStyle;rounded=0;orthogonalLoop=1;jettySize=auto;html=1;exitX=1;exitY=0.5;exitDx=0;exitDy=0;endArrow=classic;endFill=1;strokeWidth=1;entryX=0;entryY=0.5;entryDx=0;entryDy=0;noEdgeStyle=1;orthogonal=1;" edge="1" parent="1" source="7XZhA4TsvUJ1Mmdb0Nh9-144" target="7XZhA4TsvUJ1Mmdb0Nh9-15">
          <mxGeometry relative="1" as="geometry">
            <mxPoint x="370" y="1500" as="targetPoint" />
            <Array as="points">
              <mxPoint x="232" y="2640" />
              <mxPoint x="308" y="1768.004685047093" />
            </Array>
          </mxGeometry>
        </mxCell>
        <mxCell id="7XZhA4TsvUJ1Mmdb0Nh9-144" value="Biergarten" style="shape=parallelogram;html=1;strokeWidth=2;perimeter=parallelogramPerimeter;whiteSpace=wrap;rounded=1;arcSize=12;size=0.07500000000000001;fillColor=#f5f5f5;fontColor=#333333;strokeColor=#050505;" vertex="1" parent="1">
          <mxGeometry x="110" y="2620" width="80" height="40" as="geometry" />
        </mxCell>
      </root>
    </mxGraphModel>
  </diagram>
</mxfile>
